<?xml version="1.0" encoding="utf-8" standalone="no"?>
<!DOCTYPE svg PUBLIC "-//W3C//DTD SVG 1.1//EN"
  "http://www.w3.org/Graphics/SVG/1.1/DTD/svg11.dtd">
<svg xmlns:xlink="http://www.w3.org/1999/xlink" width="424.721157pt" height="201.683832pt" viewBox="0 0 424.721157 201.683832" xmlns="http://www.w3.org/2000/svg" version="1.1">
 <metadata>
  <rdf:RDF xmlns:dc="http://purl.org/dc/elements/1.1/" xmlns:cc="http://creativecommons.org/ns#" xmlns:rdf="http://www.w3.org/1999/02/22-rdf-syntax-ns#">
   <cc:Work>
    <dc:type rdf:resource="http://purl.org/dc/dcmitype/StillImage"/>
    <dc:format>image/svg+xml</dc:format>
    <dc:creator>
     <cc:Agent>
      <dc:title>Matplotlib v3.11.2, https://matplotlib.org/</dc:title>
     </cc:Agent>
    </dc:creator>
   </cc:Work>
  </rdf:RDF>
 </metadata>
 <defs>
  <style type="text/css">*{stroke-linejoin: round; stroke-linecap: butt}</style>
 </defs>
 <g id="figure_1">
  <g id="patch_1">
   <path d="M 0 201.683832 
L 424.721157 201.683832 
L 424.721157 0 
L 0 0 
z
" style="fill: #ffffff"/>
  </g>
  <g id="axes_1">
   <g id="patch_2">
    <path d="M 27.848086 175.743246 
L 199.775508 175.743246 
L 199.775508 34.305766 
L 27.848086 34.305766 
z
" style="fill: #ffffff"/>
   </g>
   <g id="axes_2">
    <g id="patch_3">
     <path d="M 27.848086 34.305766 
L 199.775508 34.305766 
L 199.775508 34.305766 
L 27.848086 34.305766 
z
" style="fill: #ffffff"/>
    </g>
    <g id="matplotlib.axis_1">
     <g id="xtick_1">
      <g id="line2d_1">
       <defs>
        <path id="mb1010b6f42" d="M 0 0 
L 0 -2.5 
" style="stroke: #000000; stroke-width: 0.6"/>
       </defs>
       <g>
        <use xlink:href="#mb1010b6f42" x="40.175806" y="34.305766" style="stroke: #000000; stroke-width: 0.6"/>
       </g>
      </g>
      <g id="text_1">
       <text style="font-size: 6px; font-family: 'DejaVu Sans'; text-anchor: middle" x="40.175806" y="26.864359" transform="rotate(-0 40.175806 26.864359)">−0.2</text>
      </g>
     </g>
     <g id="xtick_2">
      <g id="line2d_2">
       <g>
        <use xlink:href="#mb1010b6f42" x="61.033728" y="34.305766" style="stroke: #000000; stroke-width: 0.6"/>
       </g>
      </g>
      <g id="text_2">
       <text style="font-size: 6px; font-family: 'DejaVu Sans'; text-anchor: middle" x="61.033728" y="26.864359" transform="rotate(-0 61.033728 26.864359)">−0.1</text>
      </g>
     </g>
     <g id="xtick_3">
      <g id="line2d_3">
       <g>
        <use xlink:href="#mb1010b6f42" x="81.89165" y="34.305766" style="stroke: #000000; stroke-width: 0.6"/>
       </g>
      </g>
      <g id="text_3">
       <text style="font-size: 6px; font-family: 'DejaVu Sans'; text-anchor: middle" x="81.89165" y="26.864359" transform="rotate(-0 81.89165 26.864359)">0.0</text>
      </g>
     </g>
     <g id="xtick_4">
      <g id="line2d_4">
       <g>
        <use xlink:href="#mb1010b6f42" x="102.749572" y="34.305766" style="stroke: #000000; stroke-width: 0.6"/>
       </g>
      </g>
      <g id="text_4">
       <text style="font-size: 6px; font-family: 'DejaVu Sans'; text-anchor: middle" x="102.749572" y="26.864359" transform="rotate(-0 102.749572 26.864359)">0.1</text>
      </g>
     </g>
     <g id="xtick_5">
      <g id="line2d_5">
       <g>
        <use xlink:href="#mb1010b6f42" x="123.607495" y="34.305766" style="stroke: #000000; stroke-width: 0.6"/>
       </g>
      </g>
      <g id="text_5">
       <text style="font-size: 6px; font-family: 'DejaVu Sans'; text-anchor: middle" x="123.607495" y="26.864359" transform="rotate(-0 123.607495 26.864359)">0.2</text>
      </g>
     </g>
     <g id="xtick_6">
      <g id="line2d_6">
       <g>
        <use xlink:href="#mb1010b6f42" x="144.465417" y="34.305766" style="stroke: #000000; stroke-width: 0.6"/>
       </g>
      </g>
      <g id="text_6">
       <text style="font-size: 6px; font-family: 'DejaVu Sans'; text-anchor: middle" x="144.465417" y="26.864359" transform="rotate(-0 144.465417 26.864359)">0.3</text>
      </g>
     </g>
     <g id="xtick_7">
      <g id="line2d_7">
       <g>
        <use xlink:href="#mb1010b6f42" x="165.323339" y="34.305766" style="stroke: #000000; stroke-width: 0.6"/>
       </g>
      </g>
      <g id="text_7">
       <text style="font-size: 6px; font-family: 'DejaVu Sans'; text-anchor: middle" x="165.323339" y="26.864359" transform="rotate(-0 165.323339 26.864359)">0.4</text>
      </g>
     </g>
     <g id="xtick_8">
      <g id="line2d_8">
       <g>
        <use xlink:href="#mb1010b6f42" x="186.181261" y="34.305766" style="stroke: #000000; stroke-width: 0.6"/>
       </g>
      </g>
      <g id="text_8">
       <text style="font-size: 6px; font-family: 'DejaVu Sans'; text-anchor: middle" x="186.181261" y="26.864359" transform="rotate(-0 186.181261 26.864359)">0.5</text>
      </g>
     </g>
     <g id="text_9">
      <text style="font-size: 6.3px; font-family: 'DejaVu Sans'; text-anchor: middle" x="113.811797" y="18.305766" transform="rotate(-0 113.811797 18.305766)">dT/dz (K/m) at 850 hPa, 283 K</text>
     </g>
    </g>
    <g id="matplotlib.axis_2"/>
    <g id="patch_4">
     <path d="M 27.848086 34.305766 
L 199.775508 34.305766 
" style="fill: none; stroke: #000000; stroke-width: 0.6; stroke-linejoin: miter; stroke-linecap: square"/>
    </g>
   </g>
   <g id="matplotlib.axis_3">
    <g id="xtick_9">
     <g id="line2d_9">
      <defs>
       <path id="mefdc040633" d="M 0 0 
L 0 2.5 
" style="stroke: #000000; stroke-width: 0.6"/>
      </defs>
      <g>
       <use xlink:href="#mefdc040633" x="35.662969" y="175.743246" style="stroke: #000000; stroke-width: 0.6"/>
      </g>
     </g>
     <g id="text_10">
      <text style="font-size: 7px; font-family: 'DejaVu Sans'; text-anchor: middle" x="35.662969" y="187.061605" transform="rotate(-0 35.662969 187.061605)">−1</text>
     </g>
    </g>
    <g id="xtick_10">
     <g id="line2d_10">
      <g>
       <use xlink:href="#mefdc040633" x="74.737383" y="175.743246" style="stroke: #000000; stroke-width: 0.6"/>
      </g>
     </g>
     <g id="text_11">
      <text style="font-size: 7px; font-family: 'DejaVu Sans'; text-anchor: middle" x="74.737383" y="187.061605" transform="rotate(-0 74.737383 187.061605)">0</text>
     </g>
    </g>
    <g id="xtick_11">
     <g id="line2d_11">
      <g>
       <use xlink:href="#mefdc040633" x="113.811797" y="175.743246" style="stroke: #000000; stroke-width: 0.6"/>
      </g>
     </g>
     <g id="text_12">
      <text style="font-size: 7px; font-family: 'DejaVu Sans'; text-anchor: middle" x="113.811797" y="187.061605" transform="rotate(-0 113.811797 187.061605)">1</text>
     </g>
    </g>
    <g id="xtick_12">
     <g id="line2d_12">
      <g>
       <use xlink:href="#mefdc040633" x="152.886211" y="175.743246" style="stroke: #000000; stroke-width: 0.6"/>
      </g>
     </g>
     <g id="text_13">
      <text style="font-size: 7px; font-family: 'DejaVu Sans'; text-anchor: middle" x="152.886211" y="187.061605" transform="rotate(-0 152.886211 187.061605)">2</text>
     </g>
    </g>
    <g id="xtick_13">
     <g id="line2d_13">
      <g>
       <use xlink:href="#mefdc040633" x="191.960625" y="175.743246" style="stroke: #000000; stroke-width: 0.6"/>
      </g>
     </g>
     <g id="text_14">
      <text style="font-size: 7px; font-family: 'DejaVu Sans'; text-anchor: middle" x="191.960625" y="187.061605" transform="rotate(-0 191.960625 187.061605)">3</text>
     </g>
    </g>
    <g id="text_15">
     <text style="font-size: 7.5px; font-family: 'DejaVu Sans'; text-anchor: middle" x="113.811797" y="198.442074" transform="rotate(-0 113.811797 198.442074)">Refraction coefficient k</text>
    </g>
   </g>
   <g id="matplotlib.axis_4">
    <g id="ytick_1">
     <g id="line2d_14">
      <defs>
       <path id="m3a17863874" d="M 0 0 
L -2.5 0 
" style="stroke: #000000; stroke-width: 0.6"/>
      </defs>
      <g>
       <use xlink:href="#m3a17863874" x="27.848086" y="175.020821" style="stroke: #000000; stroke-width: 0.6"/>
      </g>
     </g>
     <g id="text_16">
      <text style="font-size: 7px; font-family: 'DejaVu Sans'; text-anchor: end" x="21.848086" y="177.680001" transform="rotate(-0 21.848086 177.680001)">5</text>
     </g>
    </g>
    <g id="ytick_2">
     <g id="line2d_15">
      <g>
       <use xlink:href="#m3a17863874" x="27.848086" y="144.666825" style="stroke: #000000; stroke-width: 0.6"/>
      </g>
     </g>
     <g id="text_17">
      <text style="font-size: 7px; font-family: 'DejaVu Sans'; text-anchor: end" x="21.848086" y="147.326004" transform="rotate(-0 21.848086 147.326004)">10</text>
     </g>
    </g>
    <g id="ytick_3">
     <g id="line2d_16">
      <g>
       <use xlink:href="#m3a17863874" x="27.848086" y="114.312829" style="stroke: #000000; stroke-width: 0.6"/>
      </g>
     </g>
     <g id="text_18">
      <text style="font-size: 7px; font-family: 'DejaVu Sans'; text-anchor: end" x="21.848086" y="116.972008" transform="rotate(-0 21.848086 116.972008)">15</text>
     </g>
    </g>
    <g id="ytick_4">
     <g id="line2d_17">
      <g>
       <use xlink:href="#m3a17863874" x="27.848086" y="83.958832" style="stroke: #000000; stroke-width: 0.6"/>
      </g>
     </g>
     <g id="text_19">
      <text style="font-size: 7px; font-family: 'DejaVu Sans'; text-anchor: end" x="21.848086" y="86.618012" transform="rotate(-0 21.848086 86.618012)">20</text>
     </g>
    </g>
    <g id="ytick_5">
     <g id="line2d_18">
      <g>
       <use xlink:href="#m3a17863874" x="27.848086" y="53.604836" style="stroke: #000000; stroke-width: 0.6"/>
      </g>
     </g>
     <g id="text_20">
      <text style="font-size: 7px; font-family: 'DejaVu Sans'; text-anchor: end" x="21.848086" y="56.264016" transform="rotate(-0 21.848086 56.264016)">25</text>
     </g>
    </g>
    <g id="text_21">
     <text style="font-size: 7.5px; font-family: 'DejaVu Sans'; text-anchor: middle" x="7.138828" y="105.024506" transform="rotate(-90 7.138828 105.024506)">Road length with k_crit ≤ k (km)</text>
    </g>
   </g>
   <g id="line2d_19">
    <path d="M 35.662969 169.31427 
L 36.835201 169.31427 
L 37.225945 168.950022 
L 38.788922 168.950022 
L 39.179666 168.221526 
L 41.524131 168.221526 
L 42.305619 167.49303 
L 43.477852 167.49303 
L 43.868596 167.128782 
L 46.213061 167.128782 
L 46.603805 166.764534 
L 47.385293 166.764534 
L 47.776037 165.67179 
L 48.94827 165.67179 
L 49.339014 165.307542 
L 49.729758 165.307542 
L 50.120502 164.943294 
L 51.683479 164.943294 
L 52.074223 164.214798 
L 52.855711 163.486302 
L 53.246455 163.486302 
L 53.637199 163.122054 
L 54.027943 163.122054 
L 54.418688 162.393558 
L 55.981664 162.393558 
L 56.372408 161.665063 
L 56.763152 161.665063 
L 57.544641 160.936567 
L 57.935385 160.936567 
L 58.716873 160.208071 
L 59.107617 160.208071 
L 60.27985 155.108599 
L 61.452082 155.108599 
L 61.842826 154.744351 
L 62.23357 154.015856 
L 64.578035 151.830368 
L 65.750268 151.830368 
L 66.141012 151.46612 
L 66.531756 151.46612 
L 66.9225 151.101872 
L 67.703988 151.101872 
L 68.485477 150.373376 
L 68.876221 149.64488 
L 70.048453 148.552136 
L 70.439197 148.552136 
L 71.61143 147.459392 
L 72.392918 147.459392 
L 72.783662 147.095144 
L 73.174406 147.095144 
L 73.56515 146.730896 
L 73.955895 146.730896 
L 74.346639 146.366649 
L 75.909615 146.366649 
L 76.300359 145.638153 
L 77.081848 145.638153 
L 77.472592 145.273905 
L 78.25408 145.273905 
L 79.035568 144.545409 
L 81.380033 144.545409 
L 81.770777 144.181161 
L 83.724498 144.181161 
L 84.505986 143.452665 
L 84.896731 142.724169 
L 85.287475 142.724169 
L 86.459707 141.631425 
L 86.850451 141.631425 
L 87.241195 140.902929 
L 87.63194 140.538681 
L 88.022684 140.538681 
L 88.413428 140.174433 
L 89.58566 136.896202 
L 90.367149 136.896202 
L 90.757893 136.531954 
L 93.493102 136.531954 
L 93.883846 136.167706 
L 100.135752 136.167706 
L 100.526496 135.803458 
L 101.307984 135.803458 
L 101.698729 135.43921 
L 105.215426 135.43921 
L 105.60617 135.074962 
L 108.732123 135.074962 
L 109.122867 134.710714 
L 115.765518 134.710714 
L 116.156262 134.346466 
L 117.719238 134.346466 
L 118.109983 133.982218 
L 119.672959 133.982218 
L 120.063703 133.61797 
L 120.845192 133.61797 
L 121.235936 133.253722 
L 127.097098 133.253722 
L 127.878586 132.525226 
L 132.567516 132.525226 
L 132.95826 132.160978 
L 134.130492 132.160978 
L 134.521236 131.79673 
L 140.773143 131.79673 
L 141.163887 131.432482 
L 144.680584 131.432482 
L 145.071328 131.068234 
L 147.806537 131.068234 
L 148.197281 130.703987 
L 149.760258 130.703987 
L 150.151002 130.339739 
L 153.276955 130.339739 
L 153.667699 129.975491 
L 154.058444 129.975491 
L 154.449188 129.611243 
L 166.171512 129.611243 
L 166.562256 129.246995 
L 178.675324 129.246995 
L 179.066069 128.882747 
L 181.410533 128.882747 
L 181.801278 128.518499 
L 182.97351 128.518499 
L 183.364254 128.154251 
L 187.271696 128.154251 
L 187.66244 127.790003 
L 188.443928 127.790003 
L 188.834672 127.425755 
L 191.960625 127.425755 
L 191.960625 127.425755 
" clip-path="url(#p526d64a33d)" style="fill: none; stroke: #d55e00; stroke-width: 1.3; stroke-linecap: square"/>
   </g>
   <g id="line2d_20">
    <path d="M 35.662969 155.108599 
L 36.835201 155.108599 
L 38.007434 152.923112 
L 38.398178 152.923112 
L 38.788922 152.194616 
L 39.179666 152.194616 
L 39.57041 151.46612 
L 41.524131 151.46612 
L 41.914875 150.737624 
L 42.696363 150.737624 
L 43.477852 149.280632 
L 46.213061 149.280632 
L 46.603805 148.552136 
L 50.90199 148.552136 
L 51.292734 147.82364 
L 51.683479 147.82364 
L 52.074223 147.095144 
L 52.464967 147.095144 
L 52.855711 146.366649 
L 54.418688 146.366649 
L 54.809432 144.909657 
L 55.200176 144.909657 
L 55.59092 144.181161 
L 55.981664 144.181161 
L 57.153897 141.995673 
L 57.935385 141.995673 
L 58.326129 140.538681 
L 62.23357 140.538681 
L 62.624315 139.081689 
L 63.015059 139.081689 
L 63.405803 138.353194 
L 63.796547 138.353194 
L 64.187291 137.624698 
L 64.968779 137.624698 
L 65.359523 136.167706 
L 66.141012 136.167706 
L 66.531756 134.710714 
L 67.703988 134.710714 
L 68.485477 133.253722 
L 69.266965 133.253722 
L 69.657709 132.525226 
L 70.048453 132.525226 
L 70.439197 131.79673 
L 73.174406 131.79673 
L 73.56515 131.068234 
L 75.128127 131.068234 
L 75.909615 129.611243 
L 76.300359 129.611243 
L 77.081848 128.154251 
L 77.472592 128.154251 
L 78.644824 125.968763 
L 79.817057 125.968763 
L 80.207801 125.240267 
L 81.770777 125.240267 
L 82.161522 124.511771 
L 86.850451 124.511771 
L 87.241195 123.054779 
L 88.022684 123.054779 
L 88.413428 122.326284 
L 89.194916 122.326284 
L 89.58566 121.597788 
L 91.539381 121.597788 
L 92.711613 119.4123 
L 93.102358 119.4123 
L 93.493102 118.683804 
L 93.883846 115.041325 
L 94.27459 113.584333 
L 96.228311 113.584333 
L 96.619055 112.855837 
L 97.791287 112.855837 
L 98.182031 112.127341 
L 98.572775 112.127341 
L 98.96352 111.398845 
L 99.354264 111.398845 
L 100.135752 109.941853 
L 100.91724 109.941853 
L 101.307984 108.484861 
L 101.698729 107.756365 
L 102.089473 106.299374 
L 103.261705 106.299374 
L 103.652449 104.842382 
L 104.824682 104.842382 
L 105.215426 104.113886 
L 105.60617 102.656894 
L 106.387658 101.199902 
L 107.559891 101.199902 
L 107.950635 100.471406 
L 109.904356 100.471406 
L 110.2951 99.74291 
L 112.639565 99.74291 
L 113.030309 99.014415 
L 113.421053 99.014415 
L 113.811797 97.557423 
L 114.202541 97.557423 
L 114.593285 96.828927 
L 115.374774 96.828927 
L 115.765518 96.100431 
L 116.156262 94.643439 
L 116.93775 94.643439 
L 117.328494 93.914943 
L 117.719238 93.914943 
L 118.500727 92.457951 
L 119.282215 92.457951 
L 119.672959 91.729455 
L 120.454447 91.729455 
L 120.845192 91.00096 
L 121.235936 91.00096 
L 121.62668 90.272464 
L 122.798912 90.272464 
L 123.971145 88.086976 
L 125.534121 88.086976 
L 125.924865 86.629984 
L 126.706354 86.629984 
L 127.097098 85.172992 
L 127.878586 83.716001 
L 128.26933 82.259009 
L 128.660074 81.530513 
L 130.223051 81.530513 
L 130.613795 80.073521 
L 131.004539 79.345025 
L 131.786027 79.345025 
L 132.176772 78.616529 
L 132.95826 78.616529 
L 133.739748 77.159537 
L 134.521236 77.159537 
L 134.911981 76.431041 
L 135.693469 76.431041 
L 136.084213 75.702546 
L 136.865701 75.702546 
L 137.256445 74.97405 
L 139.210166 74.97405 
L 139.60091 73.517058 
L 140.382399 73.517058 
L 140.773143 72.788562 
L 141.163887 72.788562 
L 141.554631 72.060066 
L 144.680584 72.060066 
L 145.071328 71.33157 
L 145.462072 71.33157 
L 145.852817 70.603074 
L 146.634305 70.603074 
L 147.025049 69.874578 
L 148.197281 69.874578 
L 148.588026 69.146082 
L 148.97877 69.146082 
L 149.369514 68.417586 
L 150.541746 68.417586 
L 150.93249 66.960595 
L 151.713979 65.503603 
L 152.886211 65.503603 
L 153.667699 64.046611 
L 154.058444 64.046611 
L 154.449188 63.318115 
L 154.839932 63.318115 
L 155.230676 62.589619 
L 155.62142 61.132627 
L 156.012164 58.94714 
L 157.965885 58.94714 
L 159.528862 56.033156 
L 161.482582 56.033156 
L 161.873326 55.30466 
L 163.045559 55.30466 
L 163.436303 54.576164 
L 163.827047 54.576164 
L 164.217791 53.119172 
L 165.390024 53.119172 
L 165.780768 52.390677 
L 166.953 52.390677 
L 167.343744 51.662181 
L 169.688209 51.662181 
L 170.469697 50.205189 
L 172.814162 50.205189 
L 173.986395 48.019701 
L 174.377139 48.019701 
L 174.767883 47.291205 
L 175.940115 47.291205 
L 176.33086 45.834213 
L 178.28458 45.834213 
L 179.066069 44.377222 
L 180.629045 44.377222 
L 181.019789 43.648726 
L 182.97351 43.648726 
L 183.364254 42.92023 
L 183.754998 42.92023 
L 184.145742 42.191734 
L 189.225416 42.191734 
L 189.61616 41.463238 
L 190.006905 41.463238 
L 190.397649 40.734742 
L 191.960625 40.734742 
L 191.960625 40.734742 
" clip-path="url(#p526d64a33d)" style="fill: none; stroke: #cc79a7; stroke-width: 1.3; stroke-linecap: square"/>
   </g>
   <g id="line2d_21">
    <path d="M 79.817057 175.743246 
L 79.817057 34.305766 
" clip-path="url(#p526d64a33d)" style="fill: none; stroke-dasharray: 1.85,0.8; stroke-dashoffset: 0; stroke: #000000; stroke-width: 0.5"/>
   </g>
   <g id="patch_5">
    <path d="M 27.848086 175.743246 
L 27.848086 34.305766 
" style="fill: none; stroke: #000000; stroke-width: 0.6; stroke-linejoin: miter; stroke-linecap: square"/>
   </g>
   <g id="patch_6">
    <path d="M 27.848086 175.743246 
L 199.775508 175.743246 
" style="fill: none; stroke: #000000; stroke-width: 0.6; stroke-linejoin: miter; stroke-linecap: square"/>
   </g>
   <g id="text_22">
    <text style="font-size: 6px; font-family: 'DejaVu Sans'; text-anchor: start" x="81.770777" y="43.107953" transform="rotate(-0 81.770777 43.107953)">k = 0.13</text>
   </g>
   <g id="text_23">
    <text style="font-size: 8px; font-family: 'DejaVu Sans'; text-anchor: start" x="27.848086" y="7.51875" transform="rotate(-0 27.848086 7.51875)">(a) Road in view versus refraction</text>
   </g>
   <g id="legend_1">
    <g id="line2d_22">
     <path d="M 82.672383 157.801371 
L 88.672383 157.801371 
L 94.672383 157.801371 
" style="fill: none; stroke: #d55e00; stroke-width: 1.3; stroke-linecap: square"/>
    </g>
    <g id="text_24">
     <text style="font-size: 6px; font-family: 'DejaVu Sans'; text-anchor: start" x="99.472383" y="159.901371" transform="rotate(-0 99.472383 159.901371)">US-67 (Shafter–Marfa, 64.6 km)</text>
    </g>
    <g id="line2d_23">
     <path d="M 82.672383 166.80184 
L 88.672383 166.80184 
L 94.672383 166.80184 
" style="fill: none; stroke: #cc79a7; stroke-width: 1.3; stroke-linecap: square"/>
    </g>
    <g id="text_25">
     <text style="font-size: 6px; font-family: 'DejaVu Sans'; text-anchor: start" x="99.472383" y="168.90184" transform="rotate(-0 99.472383 168.90184)">RM 2810 (in the fan)</text>
    </g>
   </g>
  </g>
  <g id="axes_3">
   <g id="patch_7">
    <path d="M 251.353735 175.743246 
L 423.281157 175.743246 
L 423.281157 34.305766 
L 251.353735 34.305766 
z
" style="fill: #ffffff"/>
   </g>
   <g id="matplotlib.axis_5">
    <g id="xtick_14">
     <g id="line2d_24">
      <g>
       <use xlink:href="#mefdc040633" x="259.168618" y="175.743246" style="stroke: #000000; stroke-width: 0.6"/>
      </g>
     </g>
     <g id="text_26">
      <text style="font-size: 7px; font-family: 'DejaVu Sans'; text-anchor: middle" x="259.168618" y="187.061605" transform="rotate(-0 259.168618 187.061605)">0</text>
     </g>
    </g>
    <g id="xtick_15">
     <g id="line2d_25">
      <g>
       <use xlink:href="#mefdc040633" x="285.218227" y="175.743246" style="stroke: #000000; stroke-width: 0.6"/>
      </g>
     </g>
     <g id="text_27">
      <text style="font-size: 7px; font-family: 'DejaVu Sans'; text-anchor: middle" x="285.218227" y="187.061605" transform="rotate(-0 285.218227 187.061605)">10</text>
     </g>
    </g>
    <g id="xtick_16">
     <g id="line2d_26">
      <g>
       <use xlink:href="#mefdc040633" x="311.267836" y="175.743246" style="stroke: #000000; stroke-width: 0.6"/>
      </g>
     </g>
     <g id="text_28">
      <text style="font-size: 7px; font-family: 'DejaVu Sans'; text-anchor: middle" x="311.267836" y="187.061605" transform="rotate(-0 311.267836 187.061605)">20</text>
     </g>
    </g>
    <g id="xtick_17">
     <g id="line2d_27">
      <g>
       <use xlink:href="#mefdc040633" x="337.317446" y="175.743246" style="stroke: #000000; stroke-width: 0.6"/>
      </g>
     </g>
     <g id="text_29">
      <text style="font-size: 7px; font-family: 'DejaVu Sans'; text-anchor: middle" x="337.317446" y="187.061605" transform="rotate(-0 337.317446 187.061605)">30</text>
     </g>
    </g>
    <g id="xtick_18">
     <g id="line2d_28">
      <g>
       <use xlink:href="#mefdc040633" x="363.367055" y="175.743246" style="stroke: #000000; stroke-width: 0.6"/>
      </g>
     </g>
     <g id="text_30">
      <text style="font-size: 7px; font-family: 'DejaVu Sans'; text-anchor: middle" x="363.367055" y="187.061605" transform="rotate(-0 363.367055 187.061605)">40</text>
     </g>
    </g>
    <g id="xtick_19">
     <g id="line2d_29">
      <g>
       <use xlink:href="#mefdc040633" x="389.416665" y="175.743246" style="stroke: #000000; stroke-width: 0.6"/>
      </g>
     </g>
     <g id="text_31">
      <text style="font-size: 7px; font-family: 'DejaVu Sans'; text-anchor: middle" x="389.416665" y="187.061605" transform="rotate(-0 389.416665 187.061605)">50</text>
     </g>
    </g>
    <g id="xtick_20">
     <g id="line2d_30">
      <g>
       <use xlink:href="#mefdc040633" x="415.466274" y="175.743246" style="stroke: #000000; stroke-width: 0.6"/>
      </g>
     </g>
     <g id="text_32">
      <text style="font-size: 7px; font-family: 'DejaVu Sans'; text-anchor: middle" x="415.466274" y="187.061605" transform="rotate(-0 415.466274 187.061605)">60</text>
     </g>
    </g>
    <g id="text_33">
     <text style="font-size: 7.5px; font-family: 'DejaVu Sans'; text-anchor: middle" x="337.317446" y="198.442074" transform="rotate(-0 337.317446 198.442074)">Distance to the light (km)</text>
    </g>
   </g>
   <g id="matplotlib.axis_6">
    <g id="ytick_6">
     <g id="line2d_31">
      <g>
       <use xlink:href="#m3a17863874" x="251.353735" y="169.31427" style="stroke: #000000; stroke-width: 0.6"/>
      </g>
     </g>
     <g id="text_34">
      <text style="font-size: 7px; font-family: 'DejaVu Sans'; text-anchor: end" x="245.353735" y="171.973449" transform="rotate(-0 245.353735 171.973449)">0.0</text>
     </g>
    </g>
    <g id="ytick_7">
     <g id="line2d_32">
      <g>
       <use xlink:href="#m3a17863874" x="251.353735" y="145.485284" style="stroke: #000000; stroke-width: 0.6"/>
      </g>
     </g>
     <g id="text_35">
      <text style="font-size: 7px; font-family: 'DejaVu Sans'; text-anchor: end" x="245.353735" y="148.144464" transform="rotate(-0 245.353735 148.144464)">0.1</text>
     </g>
    </g>
    <g id="ytick_8">
     <g id="line2d_33">
      <g>
       <use xlink:href="#m3a17863874" x="251.353735" y="121.656299" style="stroke: #000000; stroke-width: 0.6"/>
      </g>
     </g>
     <g id="text_36">
      <text style="font-size: 7px; font-family: 'DejaVu Sans'; text-anchor: end" x="245.353735" y="124.315479" transform="rotate(-0 245.353735 124.315479)">0.2</text>
     </g>
    </g>
    <g id="ytick_9">
     <g id="line2d_34">
      <g>
       <use xlink:href="#m3a17863874" x="251.353735" y="97.827314" style="stroke: #000000; stroke-width: 0.6"/>
      </g>
     </g>
     <g id="text_37">
      <text style="font-size: 7px; font-family: 'DejaVu Sans'; text-anchor: end" x="245.353735" y="100.486494" transform="rotate(-0 245.353735 100.486494)">0.3</text>
     </g>
    </g>
    <g id="ytick_10">
     <g id="line2d_35">
      <g>
       <use xlink:href="#m3a17863874" x="251.353735" y="73.998329" style="stroke: #000000; stroke-width: 0.6"/>
      </g>
     </g>
     <g id="text_38">
      <text style="font-size: 7px; font-family: 'DejaVu Sans'; text-anchor: end" x="245.353735" y="76.657508" transform="rotate(-0 245.353735 76.657508)">0.4</text>
     </g>
    </g>
    <g id="ytick_11">
     <g id="line2d_36">
      <g>
       <use xlink:href="#m3a17863874" x="251.353735" y="50.169343" style="stroke: #000000; stroke-width: 0.6"/>
      </g>
     </g>
     <g id="text_39">
      <text style="font-size: 7px; font-family: 'DejaVu Sans'; text-anchor: end" x="245.353735" y="52.828523" transform="rotate(-0 245.353735 52.828523)">0.5</text>
     </g>
    </g>
    <g id="text_40">
     <text style="font-size: 7.5px; font-family: 'DejaVu Sans'; text-anchor: middle" x="228.419789" y="105.024506" transform="rotate(-90 228.419789 105.024506)">Rise in apparent elevation (°)</text>
    </g>
   </g>
   <g id="line2d_37">
    <path d="M 259.168618 169.31427 
L 415.466274 137.169388 
L 415.466274 137.169388 
" clip-path="url(#p03c1c9b545)" style="fill: none; stroke-dasharray: 0.8,1.32; stroke-dashoffset: 0; stroke: #000000; stroke-width: 0.8"/>
   </g>
   <g id="line2d_38">
    <path d="M 259.168618 169.31427 
L 415.466274 105.024506 
L 415.466274 105.024506 
" clip-path="url(#p03c1c9b545)" style="fill: none; stroke-dasharray: 2.96,1.28; stroke-dashoffset: 0; stroke: #000000; stroke-width: 0.8"/>
   </g>
   <g id="line2d_39">
    <path d="M 259.168618 169.31427 
L 415.466274 40.734742 
L 415.466274 40.734742 
" clip-path="url(#p03c1c9b545)" style="fill: none; stroke: #000000; stroke-width: 0.8; stroke-linecap: square"/>
   </g>
   <g id="patch_8">
    <path d="M 251.353735 175.743246 
L 251.353735 34.305766 
" style="fill: none; stroke: #000000; stroke-width: 0.6; stroke-linejoin: miter; stroke-linecap: square"/>
   </g>
   <g id="patch_9">
    <path d="M 251.353735 175.743246 
L 423.281157 175.743246 
" style="fill: none; stroke: #000000; stroke-width: 0.6; stroke-linejoin: miter; stroke-linecap: square"/>
   </g>
   <g id="text_41">
    <text style="font-size: 8px; font-family: 'DejaVu Sans'; text-anchor: start" x="251.353735" y="28.305766" transform="rotate(-0 251.353735 28.305766)">(b) Apparent-elevation shift, Δα = dΔk/2R</text>
   </g>
   <g id="legend_2">
    <g id="line2d_40">
     <path d="M 256.753735 42.164828 
L 262.753735 42.164828 
L 268.753735 42.164828 
" style="fill: none; stroke-dasharray: 0.8,1.32; stroke-dashoffset: 0; stroke: #000000; stroke-width: 0.8"/>
    </g>
    <g id="text_42">
     <text style="font-size: 6px; font-family: 'DejaVu Sans'; text-anchor: start" x="273.553735" y="44.264828" transform="rotate(-0 273.553735 44.264828)">Δk = 0.5</text>
    </g>
    <g id="line2d_41">
     <path d="M 256.753735 51.165297 
L 262.753735 51.165297 
L 268.753735 51.165297 
" style="fill: none; stroke-dasharray: 2.96,1.28; stroke-dashoffset: 0; stroke: #000000; stroke-width: 0.8"/>
    </g>
    <g id="text_43">
     <text style="font-size: 6px; font-family: 'DejaVu Sans'; text-anchor: start" x="273.553735" y="53.265297" transform="rotate(-0 273.553735 53.265297)">Δk = 1</text>
    </g>
    <g id="line2d_42">
     <path d="M 256.753735 60.165766 
L 262.753735 60.165766 
L 268.753735 60.165766 
" style="fill: none; stroke: #000000; stroke-width: 0.8; stroke-linecap: square"/>
    </g>
    <g id="text_44">
     <text style="font-size: 6px; font-family: 'DejaVu Sans'; text-anchor: start" x="273.553735" y="62.265766" transform="rotate(-0 273.553735 62.265766)">Δk = 2</text>
    </g>
   </g>
  </g>
 </g>
 <defs>
  <clipPath id="p526d64a33d">
   <rect x="27.848086" y="34.305766" width="171.927422" height="141.43748"/>
  </clipPath>
  <clipPath id="p03c1c9b545">
   <rect x="251.353735" y="34.305766" width="171.927422" height="141.43748"/>
  </clipPath>
 </defs>
</svg>
